<?xml version="1.0" standalone="no"?>
<!DOCTYPE svg PUBLIC "-//W3C//DTD SVG 20010904//EN"
 "http://www.w3.org/TR/2001/REC-SVG-20010904/DTD/svg10.dtd">
<svg version="1.0" xmlns="http://www.w3.org/2000/svg"
 width="1024.000000pt" height="1024.000000pt" viewBox="0 0 1024.000000 1024.000000"
 preserveAspectRatio="xMidYMid meet">
<metadata>
Created by potrace 1.14, written by Peter Selinger 2001-2017
</metadata>
<g transform="translate(0.000000,1024.000000) scale(0.100000,-0.100000)"
fill="#000000" stroke="none">
<path d="M5970 10233 c-37 -11 -59 -27 -65 -50 -3 -13 -28 -72 -55 -130 -28
-58 -50 -107 -50 -110 0 -3 -6 -19 -14 -36 -15 -35 -64 -176 -71 -204 -2 -10
-18 -67 -35 -128 -38 -138 -70 -276 -85 -365 -4 -25 -9 -54 -11 -65 -2 -11 -7
-40 -10 -65 -3 -25 -10 -64 -15 -87 -5 -24 -8 -46 -7 -50 3 -16 -15 -109 -28
-142 -8 -19 -19 -31 -26 -29 -7 3 -40 13 -73 23 -33 9 -67 20 -75 23 -8 3 -19
6 -25 7 -5 2 -77 24 -160 50 -82 26 -161 49 -175 51 -14 3 -32 7 -40 11 -20 8
-13 7 -110 23 -61 11 -166 15 -365 15 -287 0 -348 -5 -417 -33 -23 -9 -125
-42 -150 -48 -5 -1 -9 -2 -10 -4 -2 -1 -10 -3 -18 -5 -25 -5 -189 -81 -285
-131 -129 -67 -221 -133 -332 -240 -24 -23 -43 -41 -43 -39 0 2 -237 -237
-303 -306 -45 -47 -203 -269 -200 -280 2 -5 0 -9 -5 -9 -20 0 -137 -288 -157
-390 -2 -8 -4 -15 -5 -15 -2 0 -7 -20 -15 -59 -3 -16 -10 -36 -14 -45 -10 -18
-11 -23 -11 -51 0 -43 -58 -18 -185 79 -33 25 -83 66 -111 91 -74 65 -93 80
-104 80 -6 0 -10 3 -10 8 0 4 -21 19 -48 32 -26 14 -49 27 -52 30 -26 26 -273
110 -324 110 -13 0 -26 3 -30 7 -3 4 -14 7 -24 8 -26 3 -124 17 -147 21 -48
10 -196 4 -229 -10 -56 -23 -56 -25 -42 -261 10 -153 21 -266 33 -335 3 -19 7
-47 9 -62 1 -15 7 -51 13 -80 6 -29 13 -64 15 -78 3 -14 9 -40 15 -58 5 -18
11 -36 12 -40 8 -33 49 -156 58 -177 5 -11 20 -42 32 -70 13 -27 24 -52 24
-55 1 -3 45 -95 98 -204 54 -109 99 -203 100 -209 2 -12 -43 -21 -146 -32 -37
-3 -76 -8 -85 -9 -9 -2 -44 -7 -77 -11 -32 -4 -68 -9 -80 -11 -11 -3 -31 -7
-45 -9 -14 -2 -34 -6 -45 -8 -11 -2 -38 -8 -60 -12 -22 -5 -47 -10 -55 -12 -8
-2 -26 -6 -40 -8 -14 -2 -52 -11 -85 -20 -33 -10 -67 -18 -75 -20 -38 -8 -130
-35 -180 -53 -30 -10 -59 -20 -65 -21 -5 -2 -31 -13 -57 -26 -25 -13 -49 -21
-52 -18 -3 4 -6 1 -6 -5 0 -7 -5 -12 -10 -12 -12 0 -17 -4 -77 -55 -52 -45
-60 -68 -37 -103 27 -43 344 -350 344 -334 0 3 9 -4 19 -15 11 -11 70 -60 133
-109 62 -48 115 -91 118 -94 5 -7 83 -44 113 -53 20 -7 21 -24 6 -64 -11 -31
-58 -104 -74 -115 -7 -5 -7 -8 0 -8 6 0 5 -4 -1 -8 -18 -11 -97 -167 -137
-270 -44 -110 -93 -278 -112 -382 -10 -59 -15 -325 -6 -325 2 0 4 -12 6 -27 2
-14 13 -61 25 -105 80 -287 259 -604 459 -817 263 -277 492 -471 649 -547 93
-45 118 -72 103 -112 -9 -23 -101 -138 -159 -197 -14 -14 -36 -41 -51 -60 -14
-19 -28 -37 -31 -40 -3 -3 -22 -28 -42 -57 -42 -59 -44 -61 -134 -168 -75 -90
-130 -169 -164 -235 -34 -67 -76 -209 -75 -259 0 -42 2 -45 37 -57 35 -12 74
-18 198 -29 69 -6 477 -6 545 0 106 10 167 20 245 41 30 8 62 16 70 19 16 4
108 44 176 76 22 10 45 19 51 19 6 0 21 -30 34 -67 27 -85 64 -139 131 -196
63 -52 173 -127 187 -127 6 0 11 -4 11 -8 0 -5 39 -28 86 -52 47 -24 88 -48
90 -52 3 -5 10 -6 15 -3 5 4 9 3 9 -2 0 -11 65 -33 140 -48 100 -19 263 -25
325 -11 35 8 90 43 143 90 83 74 168 110 191 82 7 -8 13 -30 14 -50 1 -20 5
-36 10 -36 4 0 6 -3 5 -8 -1 -4 6 -24 15 -46 9 -21 17 -42 17 -47 0 -5 5 -9
10 -9 6 0 10 -6 10 -13 0 -16 119 -210 132 -215 4 -2 8 -10 8 -18 0 -8 7 -17
15 -20 8 -4 15 -10 15 -15 0 -19 189 -246 253 -305 82 -75 238 -159 329 -178
13 -3 34 -8 48 -11 14 -3 42 -3 62 1 31 5 39 12 56 47 11 23 22 58 26 77 3 19
8 45 10 57 3 12 7 48 11 80 3 32 8 74 10 93 14 122 20 260 26 653 3 197 0 190
72 158 41 -19 118 -45 152 -51 3 -1 19 -6 37 -11 18 -5 51 -12 73 -15 22 -3
49 -8 60 -9 11 -2 45 -6 75 -10 30 -3 60 -8 67 -10 26 -9 281 -19 468 -19 187
0 316 6 375 18 14 3 41 7 60 10 19 3 60 13 90 21 30 9 62 17 70 20 8 2 27 8
43 14 15 6 38 13 50 15 78 16 359 131 390 160 7 6 29 23 49 39 20 15 67 57
104 92 37 36 78 74 92 85 13 11 22 20 18 20 -3 0 22 28 56 62 33 35 115 132
181 216 66 84 125 151 131 149 13 -4 73 -78 136 -168 53 -75 184 -209 205
-209 8 0 15 -4 15 -8 0 -4 16 -14 35 -21 19 -7 40 -18 47 -24 26 -24 130 -101
156 -115 75 -40 175 -47 201 -14 17 21 42 79 47 109 2 12 9 35 15 50 6 16 13
39 15 52 3 13 12 37 20 52 8 16 14 32 14 36 1 5 5 26 11 48 6 22 13 49 15 60
2 11 6 31 8 45 12 61 22 164 31 315 2 39 7 117 11 175 4 58 7 118 7 134 l1 28
95 -7 c53 -4 123 -9 156 -11 108 -8 219 -9 290 -3 87 9 190 24 190 29 0 1 11
3 25 4 31 4 89 15 112 22 9 3 25 6 35 8 33 7 108 39 145 64 60 39 103 140 73
171 -8 9 -47 50 -86 91 -39 41 -178 185 -309 320 -308 317 -328 338 -349 380
-23 44 -23 45 113 117 55 30 106 61 112 69 6 8 16 14 23 14 6 0 11 4 11 8 0 5
13 23 29 41 25 28 100 167 132 246 32 76 97 266 103 300 1 6 5 19 9 30 16 50
20 90 21 230 0 139 -6 223 -19 266 -3 10 -8 28 -11 41 -6 28 -9 39 -17 58 -3
8 -15 41 -26 73 -32 87 -93 217 -102 217 -5 0 -9 6 -9 14 0 13 -100 171 -135
213 -8 10 -28 36 -45 58 -55 70 -259 275 -275 275 -3 0 -13 8 -23 18 -10 9
-34 30 -54 46 l-35 29 111 112 c122 124 136 140 136 154 0 5 4 11 8 13 5 2 37
41 71 88 33 47 66 91 71 97 6 7 10 16 9 19 0 4 4 10 9 13 14 9 135 200 159
251 12 25 21 54 20 65 -3 36 -41 71 -97 92 -58 21 -74 22 -510 28 -246 4 -240
3 -240 14 0 5 24 54 53 108 54 101 93 189 102 231 3 12 7 32 10 45 15 66 19
145 18 363 -1 133 -5 261 -8 285 -4 24 -7 51 -7 59 0 8 -7 40 -16 70 -9 30
-17 60 -18 65 -6 32 -175 353 -229 434 -83 127 -143 187 -251 256 -125 80
-168 109 -174 117 -25 33 -440 175 -440 151 0 -3 -6 -1 -12 5 -12 8 -78 20
-163 28 -73 7 -253 4 -282 -5 -18 -5 -33 -7 -33 -4 0 3 -7 0 -15 -7 -8 -6 -19
-9 -25 -5 -5 3 -10 1 -10 -6 0 -7 -3 -9 -6 -6 -4 3 -15 2 -26 -4 -11 -6 -27
-12 -36 -14 -9 -2 -73 -30 -142 -63 -184 -87 -207 -93 -216 -54 -4 15 -11 33
-17 40 -5 6 -7 12 -4 12 3 0 -1 27 -9 60 -7 32 -16 72 -19 87 -2 15 -12 55
-21 88 -8 33 -17 67 -19 75 -6 22 -64 169 -79 199 -7 14 -32 64 -56 111 -53
108 -102 190 -112 190 -4 0 -8 7 -8 15 0 8 -10 24 -22 37 -13 13 -42 48 -64
78 -23 30 -51 66 -64 80 -12 14 -45 52 -73 84 -115 131 -172 162 -257 139z"/>
</g>
</svg>
